<svg xmlns="http://www.w3.org/2000/svg" width="640" height="300" viewBox="0 0 640 300" font-family="'Segoe UI',Helvetica,Arial,sans-serif">
  <defs>
    <linearGradient id="bgd" x1="0" y1="0" x2="1" y2="1">
      <stop offset="0" stop-color="#1f0024"/><stop offset="1" stop-color="#12001a"/>
    </linearGradient>
  </defs>
  <rect width="640" height="300" rx="16" fill="url(#bgd)"/>
  <text x="34" y="46" fill="#ffffff" font-size="24" font-weight="800">Kimenetelek eloszlása</text>
  <text x="34" y="70" fill="#b79cbe" font-size="14">Premier League 2015–2024</text>

  <!-- donut: center (160,180) r=80 sw=42, circumference=502.65 -->
  <g fill="none" stroke-width="42">
    <circle cx="160" cy="180" r="80" stroke="#2c1233"/>
    <!-- H 44.5% -> 223.68 -->
    <circle cx="160" cy="180" r="80" stroke="#00ff85" stroke-dasharray="223.68 502.65" transform="rotate(-90 160 180)"/>
    <!-- D 23.3% -> 117.12, start 160.2deg -->
    <circle cx="160" cy="180" r="80" stroke="#7a5c86" stroke-dasharray="117.12 502.65" transform="rotate(70.2 160 180)"/>
    <!-- A 32.2% -> 161.85, start 244.08deg -->
    <circle cx="160" cy="180" r="80" stroke="#e90052" stroke-dasharray="161.85 502.65" transform="rotate(154.08 160 180)"/>
  </g>
  <text x="160" y="175" text-anchor="middle" fill="#ffffff" font-size="30" font-weight="800">3 800</text>
  <text x="160" y="198" text-anchor="middle" fill="#b79cbe" font-size="14">mérkőzés</text>

  <!-- legend: labels left-aligned, percentages right-aligned in a separate column -->
  <g font-size="16">
    <rect x="330" y="120" width="18" height="18" rx="4" fill="#00ff85"/>
    <text x="360" y="135" fill="#ffffff" font-weight="700">Hazai győzelem</text>
    <text x="612" y="135" fill="#00ff85" text-anchor="end" font-weight="800">44,5%</text>

    <rect x="330" y="162" width="18" height="18" rx="4" fill="#7a5c86"/>
    <text x="360" y="177" fill="#ffffff" font-weight="700">Döntetlen</text>
    <text x="612" y="177" fill="#c9b6cf" text-anchor="end" font-weight="800">23,3%</text>

    <rect x="330" y="204" width="18" height="18" rx="4" fill="#e90052"/>
    <text x="360" y="219" fill="#ffffff" font-weight="700">Vendéggyőzelem</text>
    <text x="612" y="219" fill="#ff4d8d" text-anchor="end" font-weight="800">32,2%</text>
  </g>
</svg>
